<svg width="363" height="361" viewBox="0 0 363 361" version="1.1" xmlns="http://www.w3.org/2000/svg" xmlns:xlink="http://www.w3.org/1999/xlink">
<title>Group</title>
<desc>Created using Figma</desc>
<g id="Canvas" transform="translate(127 417)">
<g id="Group">
<g id="Ellipse">
<mask id="mask0_outline_ins">
<use xlink:href="#path0_fill" fill="white" transform="translate(-30 -103)"/>
</mask>
<g mask="url(#mask0_outline_ins)">
<use xlink:href="#path1_stroke_2x" transform="translate(-30 -103)" fill="#333333"/>
</g>
</g>
<g id="Ellipse">
<mask id="mask1_outline_ins">
<use xlink:href="#path0_fill" fill="white" transform="translate(138 -101)"/>
</mask>
<g mask="url(#mask1_outline_ins)">
<use xlink:href="#path1_stroke_2x" transform="translate(138 -101)" fill="#333333"/>
</g>
</g>
<g id="Vector">
<use xlink:href="#path2_fill" transform="translate(-72.4467 -200.5)" fill="#333333"/>
<use xlink:href="#path3_stroke" transform="translate(-72.4467 -200.5)" fill="#333333"/>
</g>
<g id="Vector 2">
<use xlink:href="#path4_fill" transform="translate(-126 -199.5)" fill="#333333"/>
<use xlink:href="#path5_stroke" transform="translate(-126 -199.5)" fill="#333333"/>
</g>
<g id="Ellipse 2">
<mask id="mask2_outline_ins">
<use xlink:href="#path6_fill" fill="white" transform="translate(-113 -141)"/>
</mask>
<g mask="url(#mask2_outline_ins)">
<use xlink:href="#path7_stroke_2x" transform="translate(-113 -141)" fill="#333333"/>
</g>
</g>
<g id="map-marker">
<g id="Group">
<g id="Vector">
<use xlink:href="#path8_fill" transform="translate(-8 -417)" fill="#333333"/>
</g>
</g>
</g>
</g>
</g>
<defs>
<path id="path0_fill" d="M 45 22.5C 45 34.9264 34.9264 45 22.5 45C 10.0736 45 0 34.9264 0 22.5C 0 10.0736 10.0736 0 22.5 0C 34.9264 0 45 10.0736 45 22.5Z"/>
<path id="path1_stroke_2x" d="M 35 22.5C 35 29.4036 29.4036 35 22.5 35L 22.5 55C 40.4493 55 55 40.4493 55 22.5L 35 22.5ZM 22.5 35C 15.5964 35 10 29.4036 10 22.5L -10 22.5C -10 40.4493 4.55075 55 22.5 55L 22.5 35ZM 10 22.5C 10 15.5964 15.5964 10 22.5 10L 22.5 -10C 4.55075 -10 -10 4.55075 -10 22.5L 10 22.5ZM 22.5 10C 29.4036 10 35 15.5964 35 22.5L 55 22.5C 55 4.55075 40.4493 -10 22.5 -10L 22.5 10Z"/>
<path id="path2_fill" fill-rule="evenodd" d="M 26.4467 17L 22.9467 17L 24.4467 13.5L 20.9467 12.5L 12.4467 45C 12.4467 45 5.94669 44.5 3.9467 45C 1.9467 45.5 3.4467 71 3.4467 71C 3.4467 71 1.44669 71 0.446696 71.5C -0.553299 72 2.4467 76.5 2.4467 76.5L 3.4467 76.5L 2.4467 84L 7.4467 83.5L 9.4467 101.5C 9.4467 101.5 2.4467 102 0.946695 102C -0.553305 102 -0.0533046 107 0.946695 109C 1.9467 111 1.9467 111.5 3.4467 112C 4.9467 112.5 8.4467 112.5 8.4467 112.5L 12.9467 117L 15.4467 117L 24.9467 113L 27.9467 113L 28.4467 116.5L 31.9467 116.5L 32.4467 113.5L 37.4467 114.5L 41.9467 114.5C 41.9467 114.5 40.9467 112 40.9467 106.5C 40.9467 101 41.4467 100.5 42.9467 98C 44.4467 95.5 47.4467 94.5 49.9467 93.5C 52.4467 92.5 56.4467 92.5 62.9467 92.5C 69.4467 92.5 73.4467 93 77.4467 94.5C 81.4467 96 81.9467 96 83.9467 98C 85.9467 100 87.9467 105 87.9467 105C 87.9467 105 90.0683 109.881 91.4467 113C 92.2241 114.759 93.4467 117.5 93.4467 117.5C 93.4467 117.5 200.947 119.5 202.447 118.5C 203.947 117.5 205.947 115 205.947 115L 208.447 109.5C 208.447 109.5 209.447 106 210.947 103C 212.447 100 213.947 98 216.447 97C 218.947 96 229.447 95 233.947 95C 238.447 95 245.947 95 248.447 96C 250.947 97 253.447 98.5 254.447 100.5C 255.447 102.5 256.947 107.5 256.947 107.5L 258.947 114L 259.447 115L 291.447 115L 291.947 116L 304.447 116L 306.947 114L 307.447 106L 303.947 103L 298.447 100.5L 300.447 98.5L 300.447 92.5L 298.947 90.5L 300.947 89L 300.947 68L 257.947 19L 254.447 17L 244.947 16L 243.947 15L 243.947 5L 243.947 1.5L 239.447 1.5L 236.947 2L 236.447 4L 116.947 2.5L 115.947 1L 114.447 0L 110.447 0L 110.447 3.5L 112.447 3.5L 112.447 12C 112.447 12 41.9467 12 39.4467 12.5C 36.9467 13 34.4467 14 32.9467 14.5C 31.4467 15 26.4467 17 26.4467 17ZM 119.947 12L 115.947 7.5L 115.947 12L 119.947 12ZM 239.447 8.5L 239.447 16L 224.947 14L 225.447 12L 239.447 8.5ZM 122.447 10L 122.447 12L 222.447 14L 222.447 11L 122.447 10ZM 21.4467 21L 25.4467 21L 20.9467 27L 21.4467 21ZM 40.9467 53L 51.4467 24.5L 109.447 24.5L 107.947 53L 40.9467 53ZM 119.447 53L 120.947 24.5L 190.447 24.5L 190.447 53L 119.447 53ZM 208.447 53L 208.447 24.5L 257.947 25L 278.947 53.5L 208.447 53Z"/>
<path id="path3_stroke" d="M 26.4467 17L 26.4467 17.5L 26.543 17.5L 26.6324 17.4642L 26.4467 17ZM 22.9467 17L 22.4871 16.803L 22.1884 17.5L 22.9467 17.5L 22.9467 17ZM 24.4467 13.5L 24.9063 13.697L 25.1299 13.1752L 24.5841 13.0192L 24.4467 13.5ZM 20.9467 12.5L 21.0841 12.0192L 20.5924 11.8788L 20.463 12.3735L 20.9467 12.5ZM 12.4467 45L 12.4083 45.4985L 12.8248 45.5306L 12.9304 45.1265L 12.4467 45ZM 3.4467 71L 3.4467 71.5L 3.97697 71.5L 3.94583 70.9706L 3.4467 71ZM 2.4467 76.5L 2.03067 76.7774L 2.1791 77L 2.4467 77L 2.4467 76.5ZM 3.4467 76.5L 3.94231 76.5661L 4.01779 76L 3.4467 76L 3.4467 76.5ZM 2.4467 84L 1.95108 83.9339L 1.86755 84.5604L 2.49645 84.4975L 2.4467 84ZM 7.4467 83.5L 7.94364 83.4448L 7.88902 82.9533L 7.39694 83.0025L 7.4467 83.5ZM 9.4467 101.5L 9.48232 101.999L 10.0011 101.962L 9.94364 101.445L 9.4467 101.5ZM 8.4467 112.5L 8.80025 112.146L 8.6538 112L 8.4467 112L 8.4467 112.5ZM 12.9467 117L 12.5931 117.354L 12.7396 117.5L 12.9467 117.5L 12.9467 117ZM 15.4467 117L 15.4467 117.5L 15.5477 117.5L 15.6407 117.461L 15.4467 117ZM 24.9467 113L 24.9467 112.5L 24.8457 112.5L 24.7527 112.539L 24.9467 113ZM 27.9467 113L 28.4417 112.929L 28.3803 112.5L 27.9467 112.5L 27.9467 113ZM 28.4467 116.5L 27.9517 116.571L 28.013 117L 28.4467 117L 28.4467 116.5ZM 31.9467 116.5L 31.9467 117L 32.3703 117L 32.4399 116.582L 31.9467 116.5ZM 32.4467 113.5L 32.5448 113.01L 32.0384 112.908L 31.9535 113.418L 32.4467 113.5ZM 37.4467 114.5L 37.3486 114.99L 37.3972 115L 37.4467 115L 37.4467 114.5ZM 41.9467 114.5L 41.9467 115L 42.6852 115L 42.4109 114.314L 41.9467 114.5ZM 87.9467 105L 87.4825 105.186L 87.4852 105.193L 87.4881 105.199L 87.9467 105ZM 91.4467 113L 91.904 112.798L 91.4467 113ZM 93.4467 117.5L 92.9901 117.704L 93.1196 117.994L 93.4374 118L 93.4467 117.5ZM 205.947 115L 206.337 115.312L 206.376 115.264L 206.402 115.207L 205.947 115ZM 208.447 109.5L 208.902 109.707L 208.917 109.673L 208.927 109.637L 208.447 109.5ZM 256.947 107.5L 256.468 107.644L 256.469 107.647L 256.947 107.5ZM 258.947 114L 258.469 114.147L 258.481 114.187L 258.499 114.224L 258.947 114ZM 259.447 115L 258.999 115.224L 259.138 115.5L 259.447 115.5L 259.447 115ZM 291.447 115L 291.894 114.776L 291.756 114.5L 291.447 114.5L 291.447 115ZM 291.947 116L 291.499 116.224L 291.638 116.5L 291.947 116.5L 291.947 116ZM 304.447 116L 304.447 116.5L 304.622 116.5L 304.759 116.39L 304.447 116ZM 306.947 114L 307.259 114.39L 307.432 114.252L 307.446 114.031L 306.947 114ZM 307.447 106L 307.946 106.031L 307.961 105.783L 307.772 105.62L 307.447 106ZM 303.947 103L 304.272 102.62L 304.218 102.574L 304.154 102.545L 303.947 103ZM 298.447 100.5L 298.093 100.146L 297.583 100.657L 298.24 100.955L 298.447 100.5ZM 300.447 98.5L 300.8 98.8536L 300.947 98.7071L 300.947 98.5L 300.447 98.5ZM 300.447 92.5L 300.947 92.5L 300.947 92.3333L 300.847 92.2L 300.447 92.5ZM 298.947 90.5L 298.647 90.1L 298.247 90.4L 298.547 90.8L 298.947 90.5ZM 300.947 89L 301.247 89.4L 301.447 89.25L 301.447 89L 300.947 89ZM 300.947 68L 301.447 68L 301.447 67.8117L 301.323 67.6702L 300.947 68ZM 257.947 19L 258.323 18.6702L 258.267 18.6074L 258.195 18.5659L 257.947 19ZM 254.447 17L 254.695 16.5659L 254.604 16.5137L 254.499 16.5027L 254.447 17ZM 244.947 16L 244.593 16.3536L 244.718 16.4787L 244.894 16.4973L 244.947 16ZM 243.947 15L 243.447 15L 243.447 15.2071L 243.593 15.3536L 243.947 15ZM 243.947 1.5L 244.447 1.5L 244.447 1L 243.947 1L 243.947 1.5ZM 239.447 1.5L 239.447 1L 239.397 1L 239.349 1.00971L 239.447 1.5ZM 236.947 2L 236.849 1.50971L 236.538 1.57176L 236.462 1.87873L 236.947 2ZM 236.447 4L 236.44 4.49996L 236.836 4.50492L 236.932 4.12127L 236.447 4ZM 116.947 2.5L 116.531 2.77735L 116.677 2.99665L 116.94 2.99996L 116.947 2.5ZM 115.947 1L 116.363 0.72265L 116.307 0.639445L 116.224 0.583975L 115.947 1ZM 114.447 0L 114.724 -0.416025L 114.598 -0.5L 114.447 -0.5L 114.447 0ZM 110.447 0L 110.447 -0.5L 109.947 -0.5L 109.947 0L 110.447 0ZM 110.447 3.5L 109.947 3.5L 109.947 4L 110.447 4L 110.447 3.5ZM 112.447 3.5L 112.947 3.5L 112.947 3L 112.447 3L 112.447 3.5ZM 112.447 12L 112.447 12.5L 112.947 12.5L 112.947 12L 112.447 12ZM 115.947 7.5L 116.32 7.16782L 115.447 6.1849L 115.447 7.5L 115.947 7.5ZM 119.947 12L 119.947 12.5L 121.06 12.5L 120.32 11.6678L 119.947 12ZM 115.947 12L 115.447 12L 115.447 12.5L 115.947 12.5L 115.947 12ZM 239.447 16L 239.378 16.4953L 239.947 16.5737L 239.947 16L 239.447 16ZM 239.447 8.5L 239.947 8.5L 239.947 7.85961L 239.325 8.01493L 239.447 8.5ZM 225.447 12L 225.325 11.5149L 225.034 11.5877L 224.962 11.8787L 225.447 12ZM 224.947 14L 224.462 13.8787L 224.327 14.4192L 224.878 14.4953L 224.947 14ZM 122.447 12L 121.947 12L 121.947 12.4901L 122.437 12.4999L 122.447 12ZM 122.447 10L 122.452 9.50002L 121.947 9.49498L 121.947 10L 122.447 10ZM 222.447 11L 222.947 11L 222.947 10.505L 222.452 10.5L 222.447 11ZM 222.447 14L 222.437 14.4999L 222.947 14.5101L 222.947 14L 222.447 14ZM 25.4467 21L 25.8467 21.3L 26.4467 20.5L 25.4467 20.5L 25.4467 21ZM 21.4467 21L 21.4467 20.5L 20.9866 20.5L 20.9484 20.9585L 21.4467 21ZM 20.9467 27L 20.4484 26.9585L 20.3041 28.6901L 21.3467 27.3L 20.9467 27ZM 51.4467 24.5L 51.4467 24L 51.0981 24L 50.9775 24.3271L 51.4467 24.5ZM 40.9467 53L 40.4775 52.8271L 40.2296 53.5L 40.9467 53.5L 40.9467 53ZM 107.947 53L 107.947 53.5L 108.421 53.5L 108.446 53.0263L 107.947 53ZM 109.447 24.5L 109.946 24.5263L 109.974 24L 109.447 24L 109.447 24.5ZM 120.947 24.5L 120.947 24L 120.472 24L 120.447 24.4737L 120.947 24.5ZM 119.447 53L 118.947 52.9737L 118.92 53.5L 119.447 53.5L 119.447 53ZM 190.447 53L 190.447 53.5L 190.947 53.5L 190.947 53L 190.447 53ZM 190.447 24.5L 190.947 24.5L 190.947 24L 190.447 24L 190.447 24.5ZM 208.447 24.5L 208.452 24L 207.947 23.9949L 207.947 24.5L 208.447 24.5ZM 208.447 53L 207.947 53L 207.947 53.4965L 208.443 53.5L 208.447 53ZM 278.947 53.5L 278.943 54L 279.941 54.0071L 279.349 53.2034L 278.947 53.5ZM 257.947 25L 258.349 24.7034L 258.201 24.5025L 257.952 24.5L 257.947 25ZM 26.4467 16.5L 22.9467 16.5L 22.9467 17.5L 26.4467 17.5L 26.4467 16.5ZM 23.4063 17.197L 24.9063 13.697L 23.9871 13.303L 22.4871 16.803L 23.4063 17.197ZM 24.5841 13.0192L 21.0841 12.0192L 20.8093 12.9808L 24.3093 13.9808L 24.5841 13.0192ZM 20.463 12.3735L 11.963 44.8735L 12.9304 45.1265L 21.4304 12.6265L 20.463 12.3735ZM 12.4467 45C 12.485 44.5015 12.485 44.5015 12.4849 44.5015C 12.4849 44.5015 12.4848 44.5014 12.4846 44.5014C 12.4844 44.5014 12.4841 44.5014 12.4837 44.5014C 12.4828 44.5013 12.4816 44.5012 12.4799 44.5011C 12.4767 44.5008 12.4719 44.5005 12.4655 44.5C 12.453 44.4991 12.4342 44.4976 12.4099 44.4959C 12.3615 44.4923 12.2898 44.4871 12.1984 44.4807C 12.016 44.468 11.7521 44.4502 11.4303 44.4306C 10.7878 44.3914 9.9059 44.3442 8.96335 44.3128C 8.02143 44.2814 7.00652 44.2656 6.10542 44.2892C 5.20142 44.3132 4.36585 44.3816 3.82543 44.5149L 4.06796 45.4851C 4.52754 45.3684 5.25447 45.3118 6.13172 45.2889C 7.01186 45.2656 7.99696 45.2811 8.93004 45.3122C 9.86249 45.3433 10.7306 45.3898 11.3694 45.4288C 11.6882 45.4482 11.9477 45.4656 12.1286 45.4783C 12.2188 45.4846 12.2887 45.4896 12.3365 45.4932C 12.3603 45.4949 12.3782 45.4963 12.3904 45.4972C 12.3965 45.4976 12.401 45.498 12.404 45.4982C 12.4055 45.4983 12.4066 45.4984 12.4074 45.4985C 12.4077 45.4985 12.408 45.4985 12.4081 45.4985C 12.4082 45.4985 12.4083 45.4985 12.4083 45.4985C 12.4083 45.4985 12.4083 45.4985 12.4467 45ZM 3.82543 44.5149C 3.46152 44.6059 3.26492 44.9321 3.15751 45.1649C 3.04408 45.4141 2.94052 45.7693 2.86088 46.1618C 2.70624 46.931 2.5967 48.0034 2.52564 49.2449C 2.3844 51.7201 2.38422 54.9736 2.44679 58.1972C 2.50941 61.4209 2.63464 64.6305 2.74409 67.0306C 2.79884 68.2311 2.84971 69.231 2.88685 69.9299C 2.90544 70.2795 2.92061 70.5544 2.93113 70.7415C 2.93639 70.8352 2.9405 70.9072 2.94328 70.9556C 2.94467 70.9798 2.94574 70.9983 2.94646 71.0106C 2.94682 71.0167 2.94709 71.0214 2.94728 71.0246C 2.94737 71.0261 2.94744 71.0273 2.94749 71.0281C 2.94751 71.0285 2.94753 71.0288 2.94754 71.029C 2.94755 71.0292 2.94756 71.0294 3.4467 71C 3.94583 70.9706 3.94583 70.9706 3.94582 70.9704C 3.94581 70.9702 3.94579 70.9699 3.94577 70.9696C 3.94572 70.9688 3.94566 70.9677 3.94557 70.9661C 3.94539 70.9631 3.94513 70.9585 3.94477 70.9525C 3.94406 70.9403 3.94301 70.9221 3.94163 70.8981C 3.93886 70.85 3.93479 70.7787 3.92955 70.6855C 3.91907 70.4988 3.90397 70.2254 3.88544 69.8768C 3.84836 69.1791 3.79768 68.1829 3.74305 66.985C 3.63375 64.5882 3.50898 61.3916 3.4466 58.1778C 3.38417 54.9639 3.38399 51.7486 3.52401 49.302C 3.59357 48.0825 3.69497 47.0807 3.84111 46.3597C 3.91186 46.007 3.98115 45.7632 4.06547 45.5839C 4.15582 45.3882 4.18187 45.4566 4.06796 45.4851L 3.82543 44.5149ZM 3.4467 71C 3.4467 70.5 3.44663 70.5 3.44655 70.5C 3.44652 70.5 3.44643 70.5 3.44636 70.5C 3.44626 70.5 3.44604 70.5 3.44584 70.5C 3.44551 70.5 3.4449 70.5 3.44425 70.5C 3.44312 70.5 3.44117 70.5 3.43893 70.5C 3.43477 70.5 3.42804 70.5001 3.41989 70.5001C 3.40427 70.5003 3.38004 70.5005 3.35019 70.5011C 3.2919 70.5021 3.20457 70.5042 3.09935 70.5082C 2.89197 70.5162 2.59544 70.5328 2.27194 70.565C 1.64309 70.6279 0.812043 70.7583 0.223088 71.0528L 0.670303 71.9472C 1.08134 71.7417 1.7503 71.6221 2.37145 71.56C 2.67295 71.5297 2.93892 71.5151 3.13779 71.5074C 3.23569 71.5037 3.31242 71.5018 3.36742 71.5009C 3.39421 71.5004 3.41392 71.5002 3.42809 71.5001C 3.43483 71.5 3.43946 71.5 3.44293 71.5C 3.4445 71.5 3.44543 71.5 3.44623 71.5C 3.44655 71.5 3.44666 71.5 3.44682 71.5C 3.44686 71.5 3.44687 71.5 3.44685 71.5C 3.44684 71.5 3.4468 71.5 3.4468 71.5C 3.44675 71.5 3.4467 71.5 3.4467 71ZM 0.223088 71.0528C -0.117499 71.2231 -0.231466 71.5508 -0.252882 71.8185C -0.273611 72.0776 -0.21986 72.3621 -0.143439 72.6295C 0.00918646 73.1583 0.310827 73.815 0.629239 74.4204C 0.947937 75.0255 1.3004 75.6186 1.56827 76.052C 1.70291 76.2697 1.81882 76.4516 1.89969 76.5769C 1.94046 76.64 1.97326 76.6902 1.99533 76.7238C 2.00653 76.7409 2.01537 76.7543 2.02118 76.763C 2.02416 76.7675 2.02653 76.7711 2.02805 76.7734C 2.02884 76.7746 2.0295 76.7756 2.0299 76.7762C 2.03012 76.7765 2.03031 76.7768 2.03042 76.777C 2.03049 76.7771 2.03055 76.7772 2.03058 76.7772C 2.03063 76.7773 2.03067 76.7774 2.4467 76.5C 2.86272 76.2226 2.86274 76.2227 2.86274 76.2227C 2.86273 76.2227 2.86272 76.2227 2.8627 76.2226C 2.86262 76.2225 2.86254 76.2224 2.8624 76.2222C 2.86207 76.2217 2.86164 76.221 2.861 76.2201C 2.85964 76.218 2.85773 76.2151 2.85506 76.2111C 2.84957 76.2028 2.8417 76.1909 2.83116 76.1748C 2.80978 76.1423 2.77911 76.0953 2.73979 76.0344C 2.66051 75.9117 2.54986 75.7381 2.41887 75.5262C 2.1555 75.1001 1.82046 74.537 1.51416 73.9546C 1.20757 73.3725 0.94671 72.8104 0.818085 72.3548C 0.753881 72.1301 0.737319 71.9809 0.743933 71.8983C 0.74986 71.8242 0.760891 71.9019 0.670303 71.9472L 0.223088 71.0528ZM 2.4467 77L 3.4467 77L 3.4467 76L 2.4467 76L 2.4467 77ZM 2.95108 76.4339L 1.95108 83.9339L 2.94231 84.0661L 3.94231 76.5661L 2.95108 76.4339ZM 2.49645 84.4975L 7.49645 83.9975L 7.39694 83.0025L 2.39694 83.5025L 2.49645 84.4975ZM 6.94975 83.5552L 8.94975 101.555L 9.94364 101.445L 7.94364 83.4448L 6.94975 83.5552ZM 9.4467 101.5C 9.41107 101.001 9.41105 101.001 9.411 101.001C 9.41095 101.001 9.41087 101.001 9.41077 101.001C 9.41056 101.001 9.41024 101.001 9.40983 101.001C 9.40898 101.001 9.40773 101.002 9.40605 101.002C 9.40269 101.002 9.39769 101.002 9.39107 101.003C 9.3778 101.004 9.35812 101.005 9.33234 101.007C 9.28075 101.011 9.20497 101.016 9.10789 101.023C 8.91366 101.036 8.63471 101.056 8.29511 101.079C 7.61571 101.126 6.69494 101.189 5.727 101.251C 3.79092 101.376 1.68201 101.5 0.946695 101.5L 0.946695 102.5C 1.71138 102.5 3.85247 102.374 5.79139 102.249C 6.76095 102.186 7.68393 102.124 8.36391 102.077C 8.70399 102.053 8.98363 102.034 9.17807 102.02C 9.27534 102.013 9.35141 102.008 9.40309 102.004C 9.42895 102.003 9.44876 102.001 9.46207 102C 9.46874 102 9.4738 101.999 9.47718 101.999C 9.47887 101.999 9.48016 101.999 9.48101 101.999C 9.48144 101.999 9.48177 101.999 9.48198 101.999C 9.48209 101.999 9.48218 101.999 9.48223 101.999C 9.48229 101.999 9.48232 101.999 9.4467 101.5ZM 0.946695 101.5C 0.212392 101.5 -0.145504 102.129 -0.306065 102.67C -0.46725 103.224 -0.522011 103.993 -0.490371 104.771C -0.426082 106.314 -0.0424668 108.14 0.499482 109.224L 1.39391 108.776C 0.935858 107.86 0.569473 106.186 0.508762 104.729C 0.477902 104.007 0.516891 103.401 0.652581 102.955C 0.788895 102.496 0.930998 102.5 0.946695 102.5L 0.946695 101.5ZM 0.499482 109.224C 0.970352 110.165 1.25964 110.873 1.60233 111.353C 1.99714 111.906 2.47888 112.204 3.28858 112.474L 3.60481 111.526C 2.91452 111.296 2.64625 111.094 2.41606 110.772C 2.13375 110.377 1.92304 109.835 1.39391 108.776L 0.499482 109.224ZM 3.28858 112.474C 4.10999 112.748 5.42344 112.874 6.47983 112.937C 7.0177 112.968 7.51121 112.984 7.86527 112.992C 8.04319 112.996 8.18884 112.998 8.28842 112.999C 8.33862 112.999 8.37826 113 8.40468 113C 8.41808 113 8.4286 113 8.43546 113C 8.43899 113 8.4418 113 8.44359 113C 8.44453 113 8.4453 113 8.44578 113C 8.44604 113 8.44627 113 8.4464 113C 8.44647 113 8.44655 113 8.44659 113C 8.44665 113 8.4467 113 8.4467 112.5C 8.4467 112 8.44672 112 8.44672 112C 8.44671 112 8.4467 112 8.44668 112C 8.44659 112 8.4465 112 8.44634 112C 8.44596 112 8.44547 112 8.44472 112C 8.44313 112 8.44089 112 8.43775 112C 8.43128 112 8.42197 112 8.40937 112C 8.38379 112 8.34676 112 8.29833 111.999C 8.20064 111.998 8.06114 111.996 7.88749 111.992C 7.53843 111.985 7.06319 111.969 6.53856 111.938C 5.46995 111.876 4.2834 111.752 3.60481 111.526L 3.28858 112.474ZM 8.09314 112.854L 12.5931 117.354L 13.3002 116.646L 8.80025 112.146L 8.09314 112.854ZM 12.9467 117.5L 15.4467 117.5L 15.4467 116.5L 12.9467 116.5L 12.9467 117.5ZM 15.6407 117.461L 25.1407 113.461L 24.7527 112.539L 15.2527 116.539L 15.6407 117.461ZM 24.9467 113.5L 27.9467 113.5L 27.9467 112.5L 24.9467 112.5L 24.9467 113.5ZM 27.4517 113.071L 27.9517 116.571L 28.9417 116.429L 28.4417 112.929L 27.4517 113.071ZM 28.4467 117L 31.9467 117L 31.9467 116L 28.4467 116L 28.4467 117ZM 32.4399 116.582L 32.9399 113.582L 31.9535 113.418L 31.4535 116.418L 32.4399 116.582ZM 32.3486 113.99L 37.3486 114.99L 37.5448 114.01L 32.5448 113.01L 32.3486 113.99ZM 37.4467 115L 41.9467 115L 41.9467 114L 37.4467 114L 37.4467 115ZM 41.9467 114.5C 42.4109 114.314 42.411 114.314 42.4111 114.315C 42.4111 114.315 42.4111 114.315 42.4112 114.315C 42.4111 114.315 42.4113 114.315 42.4113 114.315C 42.4113 114.315 42.4114 114.315 42.4113 114.315C 42.411 114.314 42.4108 114.314 42.4102 114.312C 42.4087 114.309 42.407 114.304 42.404 114.296C 42.3974 114.278 42.3886 114.254 42.3763 114.218C 42.3502 114.143 42.3149 114.035 42.2703 113.883C 42.1788 113.57 42.0596 113.109 41.9379 112.469C 41.6906 111.172 41.4457 109.219 41.4467 106.5L 40.4467 106.5C 40.4477 109.281 40.7028 111.328 40.9555 112.656C 41.0838 113.328 41.2146 113.836 41.3106 114.164C 41.3598 114.332 41.4025 114.462 41.4312 114.545C 41.4462 114.589 41.4589 114.624 41.4669 114.645C 41.4713 114.657 41.4752 114.667 41.4774 114.673C 41.4787 114.676 41.48 114.679 41.4806 114.681C 41.4811 114.682 41.4815 114.683 41.4817 114.684C 41.4819 114.684 41.4821 114.685 41.4821 114.685C 41.4822 114.685 41.4823 114.685 41.4823 114.685C 41.4824 114.686 41.4825 114.686 41.9467 114.5ZM 41.4467 106.5C 41.4467 103.752 41.5733 102.312 41.866 101.259C 42.1513 100.208 42.6192 99.5174 43.3754 98.2572L 42.518 97.7428C 41.7742 98.9826 41.2421 99.7918 40.9024 100.991C 40.5701 102.188 40.4467 103.748 40.4467 106.5L 41.4467 106.5ZM 43.3754 98.2572C 44.7684 95.9357 47.5628 94.9921 50.1324 93.9642L 49.761 93.0358C 47.3306 94.0079 44.125 95.0643 42.518 97.7428L 43.3754 98.2572ZM 50.1324 93.9642C 51.3284 93.4823 52.8745 93.2472 54.9761 93.1241C 57.0864 92.9998 59.6967 93 62.9467 93L 62.9467 92C 59.6967 92 57.057 92.0002 54.9173 92.1259C 52.7689 92.2528 51.065 92.5177 49.761 93.0358L 50.1324 93.9642ZM 62.9467 93C 69.4156 92.999 73.3271 93.4855 77.2711 94.9682L 77.6223 94.0318C 73.5663 92.5145 69.4778 92.001 62.9467 92L 62.9467 93ZM 77.2711 94.9682C 79.2798 95.7213 80.3803 96.0869 81.2231 96.5097C 82.0522 96.9212 82.6132 97.3726 83.5931 98.3536L 84.3002 97.6464C 83.2802 96.6274 82.5912 96.0788 81.6703 95.6153C 80.763 95.1631 79.6136 94.7787 77.6223 94.0318L 77.2711 94.9682ZM 83.5931 98.3536C 84.5301 99.2905 85.4996 100.974 86.2495 102.474C 86.6204 103.215 86.9276 103.891 87.1449 104.388C 87.253 104.635 87.3372 104.834 87.3953 104.974C 87.4241 105.043 87.4459 105.096 87.4608 105.132C 87.4681 105.15 87.4735 105.164 87.4773 105.173C 87.4791 105.177 87.4804 105.181 87.4813 105.183C 87.4817 105.184 87.482 105.185 87.4822 105.185C 87.4823 105.185 87.4824 105.186 87.4824 105.186C 87.4825 105.186 87.4825 105.186 87.4825 105.186C 87.4825 105.186 87.4825 105.186 87.9467 105C 88.4109 104.814 88.4109 104.814 88.4109 104.814C 88.4109 104.814 88.4108 104.814 88.4108 104.814C 88.4107 104.814 88.4106 104.813 88.4104 104.813C 88.4101 104.812 88.4097 104.811 88.4092 104.81C 88.4081 104.807 88.4065 104.803 88.4045 104.798C 88.4006 104.789 88.3945 104.774 88.3867 104.755C 88.3713 104.717 88.3482 104.66 88.3184 104.589C 88.2593 104.447 88.1716 104.24 88.061 103.987C 87.8408 103.484 87.523 102.785 87.1439 102.026C 86.3938 100.526 85.3633 98.7095 84.3002 97.6464L 83.5931 98.3536ZM 87.9467 105C 87.4881 105.199 87.4881 105.199 87.4882 105.199C 87.4882 105.199 87.4882 105.199 87.4882 105.2C 87.4883 105.2 87.4884 105.2 87.4885 105.2C 87.4888 105.201 87.4892 105.202 87.4897 105.203C 87.4907 105.205 87.4922 105.209 87.4943 105.213C 87.4983 105.223 87.5044 105.237 87.5123 105.255C 87.5282 105.291 87.5517 105.345 87.582 105.415C 87.6428 105.555 87.731 105.758 87.8413 106.011C 88.0617 106.517 88.3701 107.225 88.7215 108.03C 89.4243 109.641 90.2998 111.642 90.9894 113.202L 91.904 112.798C 91.2152 111.239 90.3406 109.24 89.638 107.63C 89.2868 106.825 88.9786 106.118 88.7582 105.612C 88.648 105.359 88.5597 105.156 88.499 105.016C 88.4687 104.947 88.4453 104.893 88.4294 104.856C 88.4215 104.838 88.4154 104.824 88.4114 104.815C 88.4093 104.81 88.4078 104.807 88.4068 104.804C 88.4063 104.803 88.4059 104.802 88.4056 104.802C 88.4055 104.801 88.4054 104.801 88.4053 104.801C 88.4053 104.801 88.4053 104.801 88.4053 104.801C 88.4053 104.801 88.4053 104.801 87.9467 105ZM 90.9894 113.202C 91.3783 114.082 91.8785 115.208 92.2814 116.113C 92.4829 116.566 92.66 116.963 92.7868 117.248C 92.8502 117.39 92.901 117.504 92.936 117.582C 92.9535 117.622 92.967 117.652 92.9761 117.672C 92.9807 117.683 92.9842 117.691 92.9865 117.696C 92.9877 117.698 92.9886 117.7 92.9892 117.702C 92.9895 117.702 92.9897 117.703 92.9898 117.703C 92.9899 117.703 92.99 117.703 92.99 117.704C 92.99 117.704 92.99 117.704 92.99 117.704C 92.9901 117.704 92.9901 117.704 93.4467 117.5C 93.9033 117.296 93.9033 117.296 93.9033 117.296C 93.9033 117.296 93.9033 117.296 93.9033 117.296C 93.9032 117.296 93.9032 117.296 93.9031 117.296C 93.903 117.295 93.9027 117.295 93.9024 117.294C 93.9018 117.293 93.901 117.291 93.8998 117.288C 93.8975 117.283 93.894 117.275 93.8894 117.265C 93.8803 117.245 93.8668 117.214 93.8493 117.175C 93.8144 117.097 93.7636 116.983 93.7002 116.841C 93.5735 116.556 93.3964 116.159 93.195 115.706C 92.7922 114.801 92.2925 113.677 91.904 112.798L 90.9894 113.202ZM 93.4467 117.5C 93.4374 118 93.4378 118 93.4386 118C 93.4394 118 93.4407 118 93.4423 118C 93.4456 118 93.4505 118 93.457 118C 93.47 118.001 93.4895 118.001 93.5154 118.001C 93.567 118.002 93.6442 118.004 93.7459 118.006C 93.9494 118.009 94.2513 118.015 94.6452 118.022C 95.4329 118.037 96.5886 118.058 98.0598 118.084C 101.002 118.137 105.208 118.211 110.258 118.297C 120.36 118.469 133.845 118.687 147.377 118.875C 160.909 119.062 174.49 119.219 184.78 119.266C 189.926 119.289 194.253 119.285 197.339 119.244C 198.883 119.224 200.123 119.194 200.999 119.153C 201.438 119.133 201.797 119.109 202.053 119.082C 202.185 119.069 202.306 119.052 202.393 119.036C 202.456 119.024 202.604 118.996 202.724 118.916L 202.169 118.084C 202.242 118.035 202.292 118.037 202.206 118.054C 202.145 118.065 202.067 118.076 201.951 118.088C 201.712 118.112 201.382 118.134 200.952 118.154C 200.088 118.194 198.865 118.224 197.326 118.244C 194.246 118.285 189.928 118.289 184.785 118.266C 174.498 118.219 160.922 118.063 147.391 117.875C 133.86 117.688 120.377 117.469 110.276 117.297C 105.225 117.211 101.02 117.137 98.0777 117.084C 96.6066 117.058 95.4512 117.037 94.6635 117.022C 94.2696 117.015 93.9678 117.01 93.7643 117.006C 93.6626 117.004 93.5855 117.002 93.5339 117.002C 93.508 117.001 93.4886 117.001 93.4756 117C 93.469 117 93.4642 117 93.4609 117C 93.4593 117 93.458 117 93.4572 117C 93.4564 117 93.456 117 93.4467 117.5ZM 202.724 118.916C 203.514 118.387 204.433 117.471 205.128 116.713C 205.476 116.332 205.78 115.981 205.993 115.729C 206.1 115.602 206.186 115.497 206.245 115.426C 206.274 115.39 206.297 115.362 206.313 115.343C 206.32 115.333 206.327 115.326 206.331 115.321C 206.333 115.318 206.334 115.316 206.335 115.315C 206.336 115.314 206.336 115.313 206.337 115.313C 206.337 115.313 206.337 115.313 206.337 115.313C 206.337 115.313 206.337 115.312 206.337 115.312C 206.337 115.312 206.337 115.312 205.947 115C 205.556 114.688 205.556 114.688 205.556 114.688C 205.556 114.688 205.556 114.688 205.556 114.688C 205.556 114.688 205.556 114.688 205.556 114.688C 205.556 114.688 205.556 114.688 205.555 114.689C 205.554 114.69 205.553 114.692 205.551 114.694C 205.548 114.698 205.542 114.705 205.535 114.714C 205.52 114.732 205.499 114.758 205.471 114.792C 205.414 114.862 205.332 114.961 205.229 115.084C 205.02 115.332 204.729 115.668 204.391 116.037C 203.711 116.779 202.88 117.613 202.169 118.084L 202.724 118.916ZM 206.402 115.207L 208.902 109.707L 207.992 109.293L 205.492 114.793L 206.402 115.207ZM 208.447 109.5C 208.927 109.637 208.927 109.637 208.927 109.637C 208.927 109.637 208.927 109.637 208.927 109.637C 208.927 109.637 208.928 109.637 208.928 109.637C 208.928 109.637 208.928 109.636 208.928 109.635C 208.928 109.634 208.929 109.632 208.93 109.629C 208.932 109.622 208.935 109.613 208.938 109.6C 208.946 109.574 208.957 109.536 208.972 109.487C 209.002 109.386 209.046 109.241 209.104 109.055C 209.22 108.683 209.389 108.16 209.606 107.54C 210.041 106.297 210.654 104.702 211.394 103.224L 210.499 102.776C 209.739 104.298 209.102 105.953 208.662 107.21C 208.442 107.84 208.267 108.38 208.149 108.757C 208.09 108.947 208.044 109.098 208.013 109.201C 207.998 109.253 207.986 109.293 207.978 109.32C 207.974 109.334 207.971 109.344 207.969 109.351C 207.968 109.355 207.967 109.358 207.967 109.359C 207.967 109.36 207.966 109.361 207.966 109.362C 207.966 109.362 207.966 109.362 207.966 109.362C 207.966 109.362 207.966 109.362 207.966 109.363C 207.966 109.363 207.966 109.363 208.447 109.5ZM 211.394 103.224C 212.878 100.254 214.307 98.3942 216.632 97.4642L 216.261 96.5358C 213.586 97.6058 212.015 99.7455 210.499 102.776L 211.394 103.224ZM 216.632 97.4642C 217.201 97.2367 218.277 96.9936 219.685 96.7588C 221.082 96.5259 222.755 96.309 224.5 96.1222C 227.99 95.7481 231.713 95.4997 233.947 95.5L 233.947 94.5C 231.68 94.5003 227.903 94.7519 224.393 95.1278C 222.638 95.316 220.936 95.5366 219.521 95.7724C 218.117 96.0064 216.942 96.2633 216.261 96.5358L 216.632 97.4642ZM 233.947 95.5C 236.197 95.5 239.185 95.4999 241.924 95.6245C 244.694 95.7504 247.104 96.0014 248.261 96.4642L 248.632 95.5358C 247.289 94.9986 244.7 94.7496 241.969 94.6255C 239.208 94.5001 236.197 94.5 233.947 94.5L 233.947 95.5ZM 248.261 96.4642C 250.747 97.4587 253.088 98.9013 253.999 100.724L 254.894 100.276C 253.805 98.0987 251.146 96.5413 248.632 95.5358L 248.261 96.4642ZM 253.999 100.724C 254.487 101.696 255.099 103.413 255.597 104.908C 255.846 105.655 256.064 106.338 256.219 106.837C 256.297 107.086 256.359 107.287 256.402 107.427C 256.423 107.497 256.44 107.551 256.451 107.588C 256.457 107.607 256.461 107.62 256.464 107.63C 256.465 107.634 256.466 107.638 256.467 107.64C 256.467 107.641 256.467 107.642 256.468 107.643C 256.468 107.643 256.468 107.643 256.468 107.644C 256.468 107.644 256.468 107.644 256.468 107.644C 256.468 107.644 256.468 107.644 256.947 107.5C 257.426 107.356 257.426 107.356 257.426 107.356C 257.426 107.356 257.426 107.356 257.426 107.356C 257.425 107.356 257.425 107.356 257.425 107.355C 257.425 107.355 257.425 107.354 257.424 107.352C 257.424 107.35 257.423 107.346 257.421 107.341C 257.418 107.332 257.414 107.317 257.408 107.299C 257.397 107.261 257.38 107.206 257.358 107.135C 257.315 106.994 257.252 106.789 257.174 106.538C 257.017 106.037 256.797 105.345 256.546 104.592C 256.044 103.087 255.407 101.304 254.894 100.276L 253.999 100.724ZM 256.469 107.647L 258.469 114.147L 259.425 113.853L 257.425 107.353L 256.469 107.647ZM 258.499 114.224L 258.999 115.224L 259.894 114.776L 259.394 113.776L 258.499 114.224ZM 259.447 115.5L 291.447 115.5L 291.447 114.5L 259.447 114.5L 259.447 115.5ZM 290.999 115.224L 291.499 116.224L 292.394 115.776L 291.894 114.776L 290.999 115.224ZM 291.947 116.5L 304.447 116.5L 304.447 115.5L 291.947 115.5L 291.947 116.5ZM 304.759 116.39L 307.259 114.39L 306.634 113.61L 304.134 115.61L 304.759 116.39ZM 307.446 114.031L 307.946 106.031L 306.948 105.969L 306.448 113.969L 307.446 114.031ZM 307.772 105.62L 304.272 102.62L 303.621 103.38L 307.121 106.38L 307.772 105.62ZM 304.154 102.545L 298.654 100.045L 298.24 100.955L 303.74 103.455L 304.154 102.545ZM 298.8 100.854L 300.8 98.8536L 300.093 98.1464L 298.093 100.146L 298.8 100.854ZM 300.947 98.5L 300.947 92.5L 299.947 92.5L 299.947 98.5L 300.947 98.5ZM 300.847 92.2L 299.347 90.2L 298.547 90.8L 300.047 92.8L 300.847 92.2ZM 299.247 90.9L 301.247 89.4L 300.647 88.6L 298.647 90.1L 299.247 90.9ZM 301.447 89L 301.447 68L 300.447 68L 300.447 89L 301.447 89ZM 301.323 67.6702L 258.323 18.6702L 257.571 19.3298L 300.571 68.3298L 301.323 67.6702ZM 258.195 18.5659L 254.695 16.5659L 254.199 17.4341L 257.699 19.4341L 258.195 18.5659ZM 254.499 16.5027L 244.999 15.5027L 244.894 16.4973L 254.394 17.4973L 254.499 16.5027ZM 245.3 15.6464L 244.3 14.6464L 243.593 15.3536L 244.593 16.3536L 245.3 15.6464ZM 244.447 15L 244.447 5L 243.447 5L 243.447 15L 244.447 15ZM 244.447 5L 244.447 1.5L 243.447 1.5L 243.447 5L 244.447 5ZM 243.947 1L 239.447 1L 239.447 2L 243.947 2L 243.947 1ZM 239.349 1.00971L 236.849 1.50971L 237.045 2.49029L 239.545 1.99029L 239.349 1.00971ZM 236.462 1.87873L 235.962 3.87873L 236.932 4.12127L 237.432 2.12127L 236.462 1.87873ZM 236.453 3.50004L 116.953 2.00004L 116.94 2.99996L 236.44 4.49996L 236.453 3.50004ZM 117.363 2.22265L 116.363 0.72265L 115.531 1.27735L 116.531 2.77735L 117.363 2.22265ZM 116.224 0.583975L 114.724 -0.416025L 114.169 0.416025L 115.669 1.41603L 116.224 0.583975ZM 114.447 -0.5L 110.447 -0.5L 110.447 0.5L 114.447 0.5L 114.447 -0.5ZM 109.947 0L 109.947 3.5L 110.947 3.5L 110.947 0L 109.947 0ZM 110.447 4L 112.447 4L 112.447 3L 110.447 3L 110.447 4ZM 111.947 3.5L 111.947 12L 112.947 12L 112.947 3.5L 111.947 3.5ZM 112.447 12C 112.447 11.5 112.446 11.5 112.446 11.5C 112.445 11.5 112.445 11.5 112.443 11.5C 112.441 11.5 112.438 11.5 112.434 11.5C 112.425 11.5 112.413 11.5 112.396 11.5C 112.362 11.5 112.311 11.5 112.244 11.5C 112.111 11.5 111.913 11.5001 111.654 11.5001C 111.137 11.5002 110.379 11.5005 109.412 11.501C 107.48 11.502 104.716 11.5039 101.391 11.5078C 94.7428 11.5156 85.8516 11.5313 76.8825 11.5625C 67.9133 11.5938 58.8647 11.6406 51.9026 11.711C 48.4212 11.7461 45.4592 11.7872 43.2901 11.8351C 42.2049 11.859 41.3145 11.8848 40.6575 11.9124C 40.0208 11.9392 39.5523 11.969 39.3486 12.0097L 39.5448 12.9903C 39.6536 12.9685 40.0288 12.9397 40.6995 12.9115C 41.3499 12.8842 42.2304 12.8587 43.3122 12.8348C 45.4772 12.787 48.4332 12.7461 51.9127 12.7109C 58.8724 12.6406 67.9176 12.5937 76.8859 12.5625C 85.8543 12.5312 94.7443 12.5156 101.393 12.5078C 104.717 12.5039 107.48 12.502 109.413 12.501C 110.379 12.5005 111.138 12.5002 111.654 12.5001C 111.913 12.5001 112.111 12.5 112.244 12.5C 112.311 12.5 112.362 12.5 112.396 12.5C 112.413 12.5 112.425 12.5 112.434 12.5C 112.438 12.5 112.441 12.5 112.443 12.5C 112.445 12.5 112.445 12.5 112.446 12.5C 112.446 12.5 112.447 12.5 112.447 12ZM 39.3486 12.0097C 36.8042 12.5207 34.2747 13.5305 32.7886 14.0257L 33.1048 14.9743C 34.6187 14.4695 37.0892 13.4793 39.5448 12.9903L 39.3486 12.0097ZM 32.7886 14.0257C 32.0279 14.2794 30.3909 14.9089 28.952 15.4719C 28.2324 15.7534 27.5594 16.0195 27.067 16.2149C 26.8206 16.3127 26.6191 16.3929 26.4793 16.4486C 26.4094 16.4765 26.3548 16.4983 26.3178 16.5131C 26.2992 16.5205 26.285 16.5261 26.2755 16.53C 26.2707 16.5319 26.2671 16.5333 26.2647 16.5343C 26.2635 16.5348 26.2626 16.5351 26.2619 16.5354C 26.2616 16.5355 26.2614 16.5356 26.2612 16.5357C 26.2612 16.5357 26.2611 16.5357 26.2611 16.5357C 26.261 16.5358 26.261 16.5358 26.4467 17C 26.6324 17.4642 26.6324 17.4642 26.6324 17.4642C 26.6325 17.4642 26.6325 17.4642 26.6326 17.4642C 26.6328 17.4641 26.633 17.464 26.6333 17.4639C 26.6339 17.4636 26.6348 17.4633 26.636 17.4628C 26.6384 17.4619 26.6419 17.4604 26.6467 17.4585C 26.6561 17.4547 26.6702 17.4491 26.6886 17.4418C 26.7256 17.427 26.7799 17.4053 26.8496 17.3775C 26.9891 17.3219 27.19 17.242 27.4358 17.1444C 27.9277 16.9492 28.5985 16.6841 29.3164 16.4031C 30.7525 15.8411 32.3655 15.2206 33.1048 14.9743L 32.7886 14.0257ZM 115.573 7.83218L 119.573 12.3322L 120.32 11.6678L 116.32 7.16782L 115.573 7.83218ZM 119.947 11.5L 115.947 11.5L 115.947 12.5L 119.947 12.5L 119.947 11.5ZM 116.447 12L 116.447 7.5L 115.447 7.5L 115.447 12L 116.447 12ZM 239.947 16L 239.947 8.5L 238.947 8.5L 238.947 16L 239.947 16ZM 239.325 8.01493L 225.325 11.5149L 225.568 12.4851L 239.568 8.98507L 239.325 8.01493ZM 224.962 11.8787L 224.462 13.8787L 225.432 14.1213L 225.932 12.1213L 224.962 11.8787ZM 224.878 14.4953L 239.378 16.4953L 239.515 15.5047L 225.015 13.5047L 224.878 14.4953ZM 122.947 12L 122.947 10L 121.947 10L 121.947 12L 122.947 12ZM 122.442 10.5L 222.442 11.5L 222.452 10.5L 122.452 9.50002L 122.442 10.5ZM 221.947 11L 221.947 14L 222.947 14L 222.947 11L 221.947 11ZM 222.457 13.5001L 122.457 11.5001L 122.437 12.4999L 222.437 14.4999L 222.457 13.5001ZM 25.4467 20.5C 25.0467 20.5 22.6134 20.5 21.4467 20.5L 21.4467 21.5C 22.6134 21.5 25.0467 21.5 25.4467 21.5L 25.4467 20.5ZM 20.9484 20.9585L 20.4484 26.9585L 21.445 27.0415L 21.945 21.0415L 20.9484 20.9585ZM 21.3467 27.3L 25.8467 21.3L 25.0467 20.7L 20.5467 26.7L 21.3467 27.3ZM 50.9775 24.3271L 40.4775 52.8271L 41.4159 53.1729L 51.9159 24.6729L 50.9775 24.3271ZM 40.9467 53.5L 107.947 53.5L 107.947 52.5L 40.9467 52.5L 40.9467 53.5ZM 108.446 53.0263L 109.946 24.5263L 108.947 24.4737L 107.447 52.9737L 108.446 53.0263ZM 109.447 24L 51.4467 24L 51.4467 25L 109.447 25L 109.447 24ZM 120.447 24.4737L 118.947 52.9737L 119.946 53.0263L 121.446 24.5263L 120.447 24.4737ZM 119.447 53.5L 190.447 53.5L 190.447 52.5L 119.447 52.5L 119.447 53.5ZM 190.947 53L 190.947 24.5L 189.947 24.5L 189.947 53L 190.947 53ZM 190.447 24L 120.947 24L 120.947 25L 190.447 25L 190.447 24ZM 207.947 24.5L 207.947 53L 208.947 53L 208.947 24.5L 207.947 24.5ZM 208.443 53.5L 278.943 54L 278.95 53L 208.45 52.5L 208.443 53.5ZM 279.349 53.2034L 258.349 24.7034L 257.544 25.2966L 278.544 53.7966L 279.349 53.2034ZM 257.952 24.5L 208.452 24L 208.442 25L 257.942 25.5L 257.952 24.5ZM 21.4467 21.5L 25.4467 21.5L 25.4467 20.5L 21.4467 20.5L 21.4467 21.5Z"/>
<path id="path4_fill" fill-rule="evenodd" d="M 74 10L 74 9L 52 9L 42 9L 41 8L 38 8L 36.5 9L 27 9L 25.5 4L 24 2L 21 0L 19.5 0.5L 19 2L 15 2.5L 14 4L 14.5 6L 17 6.5L 19.5 6L 21 6.5L 21.5 10L 22 12L 24.5 12.5L 26 12L 28 12L 28 13.5L 29 13.5L 29.5 36L 23 49.5L 21 49.5L 21 48.5L 20 48.5L 19.5 49.5L 11.5 49L 9.5 48.5L 9 43.5L 10.5 40.5L 8.5 40.5L 3 51L 0 55.5L 2.5 57L 4 55L 7 53.5L 8.5 51.5L 11 51.5L 19.5 52L 19.5 54.5L 20.5 54.5L 21.5 52L 30.5 52.5L 36 52.5L 36 55L 35 56.5L 34 58L 35 61L 36.5 76.5L 34 77L 32.5 79.5L 33.5 81L 34 83.5L 35 86L 36.5 87.5L 38 88.5L 39 89L 41 90.5L 45.5 88.5L 46.5 86L 50 88.5L 51 91L 53 90L 53 88L 51 87L 46.5 84L 47 81L 46 80L 44 81.5L 43.5 80L 53.5 62.5L 55 62.5L 56 62L 59 60.5C 59.5 60 60.6 58.6 61 57C 61.5 55 60 53.5 59.5 52.5C 59.1 51.7 57 51.1667 56 51L 36.5 20.5C 35.3 17.7 35.3333 15.3333 35.5 14.5L 37.5 13.5L 39.5 14L 40.5 12L 52 12L 52.5 12.5L 74 12L 75 11.5L 76.5 10.5L 76 9.5L 74 10ZM 30.5 50L 24.5 50.5L 30.5 40L 30.5 50ZM 33 50.5L 32.5 37.5L 33.5 38L 34 45L 35 45L 35.5 50.5L 33 50.5ZM 36.5 45L 37 50.5C 40.2 50.5 43.6667 51.8333 45 52.5L 50 55.5L 50.5 54.5L 52.5 53.5L 52.5 52.5L 32 19L 32 29C 32 29.5 32.5 31.4 34.5 35L 36 36.5L 37.5 37L 37 38L 37.5 45L 36.5 45ZM 39.5 54.5L 40.5 53C 42.1 53.4 43.1667 53.8333 43.5 54L 43 58L 45.5 59L 47 58.5L 48.5 59L 48 60.5L 49.5 62L 50 61L 51.3165 62L 41.8461 78L 40.5 78L 39 78.5L 37.8104 60.5L 38 58L 38 54.5L 39.5 54.5Z"/>
<path id="path5_stroke" d="M 74 10L 73.5 10L 73.5 10.6404L 74.1213 10.4851L 74 10ZM 74 9L 74.5 9L 74.5 8.5L 74 8.5L 74 9ZM 42 9L 41.6464 9.35355L 41.7929 9.5L 42 9.5L 42 9ZM 41 8L 41.3536 7.64645L 41.2071 7.5L 41 7.5L 41 8ZM 38 8L 38 7.5L 37.8486 7.5L 37.7226 7.58397L 38 8ZM 36.5 9L 36.5 9.5L 36.6514 9.5L 36.7774 9.41603L 36.5 9ZM 27 9L 26.5211 9.14367L 26.628 9.5L 27 9.5L 27 9ZM 25.5 4L 25.9789 3.85633L 25.9534 3.77115L 25.9 3.7L 25.5 4ZM 24 2L 24.4 1.7L 24.3486 1.63148L 24.2773 1.58397L 24 2ZM 21 0L 21.2773 -0.416025L 21.0739 -0.551673L 20.8419 -0.474342L 21 0ZM 19.5 0.5L 19.3419 0.0256584L 19.1047 0.104715L 19.0257 0.341886L 19.5 0.5ZM 19 2L 19.062 2.49614L 19.3747 2.45705L 19.4743 2.15811L 19 2ZM 15 2.5L 14.938 2.00386L 14.7109 2.03224L 14.584 2.22265L 15 2.5ZM 14 4L 13.584 3.72265L 13.4613 3.90669L 13.5149 4.12127L 14 4ZM 14.5 6L 14.0149 6.12127L 14.0917 6.42824L 14.4019 6.49029L 14.5 6ZM 17 6.5L 16.9019 6.99029L 17 7.0099L 17.0981 6.99029L 17 6.5ZM 19.5 6L 19.6581 5.52566L 19.5321 5.48367L 19.4019 5.50971L 19.5 6ZM 21 6.5L 21.495 6.42929L 21.4513 6.12338L 21.1581 6.02566L 21 6.5ZM 21.5 10L 21.005 10.0707L 21.0087 10.0962L 21.0149 10.1213L 21.5 10ZM 22 12L 21.5149 12.1213L 21.5917 12.4282L 21.9019 12.4903L 22 12ZM 24.5 12.5L 24.4019 12.9903L 24.5321 13.0163L 24.6581 12.9743L 24.5 12.5ZM 26 12L 26 11.5L 25.9189 11.5L 25.8419 11.5257L 26 12ZM 28 12L 28.5 12L 28.5 11.5L 28 11.5L 28 12ZM 28 13.5L 27.5 13.5L 27.5 14L 28 14L 28 13.5ZM 29 13.5L 29.4999 13.4889L 29.489 13L 29 13L 29 13.5ZM 29.5 36L 29.9505 36.2169L 30.0025 36.1088L 29.9999 35.9889L 29.5 36ZM 23 49.5L 23 50L 23.3142 50L 23.4505 49.7169L 23 49.5ZM 21 49.5L 20.5 49.5L 20.5 50L 21 50L 21 49.5ZM 21 48.5L 21.5 48.5L 21.5 48L 21 48L 21 48.5ZM 20 48.5L 20 48L 19.691 48L 19.5528 48.2764L 20 48.5ZM 19.5 49.5L 19.4688 49.999L 19.7992 50.0197L 19.9472 49.7236L 19.5 49.5ZM 11.5 49L 11.3787 49.4851L 11.4231 49.4962L 11.4688 49.499L 11.5 49ZM 9.5 48.5L 9.00248 48.5498L 9.03748 48.8998L 9.37873 48.9851L 9.5 48.5ZM 9 43.5L 8.55279 43.2764L 8.48809 43.4058L 8.50248 43.5498L 9 43.5ZM 10.5 40.5L 10.9472 40.7236L 11.309 40L 10.5 40L 10.5 40.5ZM 8.5 40.5L 8.5 40L 8.19746 40L 8.05708 40.268L 8.5 40.5ZM 3 51L 3.41603 51.2774L 3.43067 51.2554L 3.44292 51.232L 3 51ZM 0 55.5L -0.416025 55.2226L -0.706897 55.659L -0.257248 55.9287L 0 55.5ZM 2.5 57L 2.24275 57.4287L 2.62943 57.6608L 2.9 57.3L 2.5 57ZM 4 55L 3.77639 54.5528L 3.67082 54.6056L 3.6 54.7L 4 55ZM 7 53.5L 7.22361 53.9472L 7.32918 53.8944L 7.4 53.8L 7 53.5ZM 8.5 51.5L 8.5 51L 8.25 51L 8.1 51.2L 8.5 51.5ZM 11 51.5L 11.0294 51.0009L 11.0147 51L 11 51L 11 51.5ZM 19.5 52L 20 52L 20 51.5285L 19.5294 51.5009L 19.5 52ZM 19.5 54.5L 19 54.5L 19 55L 19.5 55L 19.5 54.5ZM 20.5 54.5L 20.5 55L 20.8385 55L 20.9642 54.6857L 20.5 54.5ZM 21.5 52L 21.5277 51.5008L 21.1691 51.4808L 21.0358 51.8143L 21.5 52ZM 30.5 52.5L 30.4723 52.9992L 30.4861 53L 30.5 53L 30.5 52.5ZM 36 52.5L 36.5 52.5L 36.5 52L 36 52L 36 52.5ZM 36 55L 36.416 55.2774L 36.5 55.1514L 36.5 55L 36 55ZM 34 58L 33.584 57.7226L 33.4483 57.9261L 33.5257 58.1581L 34 58ZM 35 61L 35.4977 60.9518L 35.4922 60.8955L 35.4743 60.8419L 35 61ZM 36.5 76.5L 36.5981 76.9903L 37.0412 76.9017L 36.9977 76.4518L 36.5 76.5ZM 34 77L 33.9019 76.5097L 33.6851 76.5531L 33.5713 76.7428L 34 77ZM 32.5 79.5L 32.0713 79.2428L 31.9085 79.5141L 32.084 79.7774L 32.5 79.5ZM 33.5 81L 33.9903 80.9019L 33.9709 80.8049L 33.916 80.7226L 33.5 81ZM 34 83.5L 33.5097 83.5981L 33.5187 83.6431L 33.5358 83.6857L 34 83.5ZM 35 86L 34.5358 86.1857L 34.5739 86.281L 34.6464 86.3536L 35 86ZM 36.5 87.5L 36.1464 87.8536L 36.1815 87.8886L 36.2226 87.916L 36.5 87.5ZM 38 88.5L 37.7226 88.916L 37.7486 88.9333L 37.7764 88.9472L 38 88.5ZM 39 89L 39.3 88.6L 39.2639 88.573L 39.2236 88.5528L 39 89ZM 41 90.5L 40.7 90.9L 40.9348 91.0761L 41.2031 90.9569L 41 90.5ZM 45.5 88.5L 45.7031 88.9569L 45.8888 88.8744L 45.9642 88.6857L 45.5 88.5ZM 46.5 86L 46.7906 85.5931L 46.2723 85.2229L 46.0358 85.8143L 46.5 86ZM 50 88.5L 50.4642 88.3143L 50.4098 88.1783L 50.2906 88.0931L 50 88.5ZM 51 91L 50.5358 91.1857L 50.7376 91.6902L 51.2236 91.4472L 51 91ZM 53 90L 53.2236 90.4472L 53.5 90.309L 53.5 90L 53 90ZM 53 88L 53.5 88L 53.5 87.691L 53.2236 87.5528L 53 88ZM 51 87L 50.7226 87.416L 50.7486 87.4333L 50.7764 87.4472L 51 87ZM 46.5 84L 46.0068 83.9178L 45.9537 84.2367L 46.2226 84.416L 46.5 84ZM 47 81L 47.4932 81.0822L 47.5355 80.8284L 47.3536 80.6464L 47 81ZM 46 80L 46.3536 79.6464L 46.0469 79.3398L 45.7 79.6L 46 80ZM 44 81.5L 43.5257 81.6581L 43.745 82.3162L 44.3 81.9L 44 81.5ZM 43.5 80L 43.0659 79.7519L 42.955 79.946L 43.0257 80.1581L 43.5 80ZM 53.5 62.5L 53.5 62L 53.2098 62L 53.0659 62.2519L 53.5 62.5ZM 55 62.5L 55 63L 55.118 63L 55.2236 62.9472L 55 62.5ZM 59 60.5L 59.2236 60.9472L 59.2962 60.9109L 59.3536 60.8536L 59 60.5ZM 56 51L 55.5787 51.2693L 55.6985 51.4566L 55.9178 51.4932L 56 51ZM 36.5 20.5L 36.0404 20.697L 36.0566 20.7347L 36.0787 20.7693L 36.5 20.5ZM 35.5 14.5L 35.2764 14.0528L 35.0577 14.1621L 35.0097 14.4019L 35.5 14.5ZM 37.5 13.5L 37.6213 13.0149L 37.4418 12.9701L 37.2764 13.0528L 37.5 13.5ZM 39.5 14L 39.3787 14.4851L 39.7678 14.5823L 39.9472 14.2236L 39.5 14ZM 40.5 12L 40.5 11.5L 40.191 11.5L 40.0528 11.7764L 40.5 12ZM 52 12L 52.3536 11.6464L 52.2071 11.5L 52 11.5L 52 12ZM 52.5 12.5L 52.1464 12.8536L 52.2977 13.0048L 52.5116 12.9999L 52.5 12.5ZM 74 12L 74.0116 12.4999L 74.1235 12.4973L 74.2236 12.4472L 74 12ZM 75 11.5L 75.2236 11.9472L 75.2514 11.9333L 75.2774 11.916L 75 11.5ZM 76.5 10.5L 76.7774 10.916L 77.1446 10.6712L 76.9472 10.2764L 76.5 10.5ZM 76 9.5L 76.4472 9.27639L 76.2678 8.91765L 75.8787 9.01493L 76 9.5ZM 24.5 50.5L 24.0659 50.2519L 23.5943 51.0772L 24.5415 50.9983L 24.5 50.5ZM 30.5 50L 30.5415 50.4983L 31 50.4601L 31 50L 30.5 50ZM 30.5 40L 31 40L 31 38.1172L 30.0659 39.7519L 30.5 40ZM 32.5 37.5L 32.7236 37.0528L 31.9679 36.6749L 32.0004 37.5192L 32.5 37.5ZM 33 50.5L 32.5004 50.5192L 32.5189 51L 33 51L 33 50.5ZM 35.5 50.5L 35.5 51L 36.0475 51L 35.9979 50.4547L 35.5 50.5ZM 35 45L 35.4979 44.9547L 35.4566 44.5L 35 44.5L 35 45ZM 34 45L 33.5013 45.0356L 33.5344 45.5L 34 45.5L 34 45ZM 33.5 38L 33.9987 37.9644L 33.9784 37.6802L 33.7236 37.5528L 33.5 38ZM 37 50.5L 36.5021 50.5453L 36.5434 51L 37 51L 37 50.5ZM 36.5 45L 36.5 44.5L 35.9525 44.5L 36.0021 45.0453L 36.5 45ZM 37.5 45L 37.5 45.5L 38.037 45.5L 37.9987 44.9644L 37.5 45ZM 37 38L 36.5528 37.7764L 36.4915 37.8989L 36.5013 38.0356L 37 38ZM 37.5 37L 37.9472 37.2236L 38.205 36.708L 37.6581 36.5257L 37.5 37ZM 36 36.5L 35.6464 36.8536L 35.7299 36.937L 35.8419 36.9743L 36 36.5ZM 34.5 35L 34.0629 35.2428L 34.0969 35.304L 34.1464 35.3536L 34.5 35ZM 32 19L 32.4265 18.739L 31.5 17.225L 31.5 19L 32 19ZM 52.5 52.5L 53 52.5L 53 52.3592L 52.9265 52.239L 52.5 52.5ZM 52.5 53.5L 52.7236 53.9472L 53 53.809L 53 53.5L 52.5 53.5ZM 50.5 54.5L 50.2764 54.0528L 50.1273 54.1273L 50.0528 54.2764L 50.5 54.5ZM 50 55.5L 49.7428 55.9287L 50.2057 56.2065L 50.4472 55.7236L 50 55.5ZM 45 52.5L 45.2572 52.0713L 45.2408 52.0614L 45.2236 52.0528L 45 52.5ZM 40.5 53L 40.6213 52.5149L 40.2794 52.4295L 40.084 52.7226L 40.5 53ZM 39.5 54.5L 39.5 55L 39.7676 55L 39.916 54.7774L 39.5 54.5ZM 38 54.5L 38 54L 37.5 54L 37.5 54.5L 38 54.5ZM 38 58L 38.4986 58.0378L 38.5 58.0189L 38.5 58L 38 58ZM 37.8104 60.5L 37.3119 60.4622L 37.3092 60.4976L 37.3115 60.533L 37.8104 60.5ZM 39 78.5L 38.5011 78.533L 38.5438 79.1791L 39.1581 78.9743L 39 78.5ZM 40.5 78L 40.5 77.5L 40.4189 77.5L 40.3419 77.5257L 40.5 78ZM 41.8461 78L 41.8461 78.5L 42.1312 78.5L 42.2764 78.2547L 41.8461 78ZM 51.3165 62L 51.7468 62.2547L 51.9737 61.8713L 51.619 61.6018L 51.3165 62ZM 50 61L 50.3024 60.6018L 49.8224 60.2372L 49.5528 60.7764L 50 61ZM 49.5 62L 49.1464 62.3536L 49.637 62.8441L 49.9472 62.2236L 49.5 62ZM 48 60.5L 47.5257 60.3419L 47.4279 60.635L 47.6464 60.8536L 48 60.5ZM 48.5 59L 48.9743 59.1581L 49.1325 58.6838L 48.6581 58.5257L 48.5 59ZM 47 58.5L 47.1581 58.0257L 47 57.973L 46.8419 58.0257L 47 58.5ZM 45.5 59L 45.3143 59.4642L 45.4844 59.5323L 45.6581 59.4743L 45.5 59ZM 43 58L 42.5039 57.938L 42.456 58.3209L 42.8143 58.4642L 43 58ZM 43.5 54L 43.9961 54.062L 44.04 53.711L 43.7236 53.5528L 43.5 54ZM 74.5 10L 74.5 9L 73.5 9L 73.5 10L 74.5 10ZM 74 8.5L 52 8.5L 52 9.5L 74 9.5L 74 8.5ZM 52 8.5L 42 8.5L 42 9.5L 52 9.5L 52 8.5ZM 42.3536 8.64645L 41.3536 7.64645L 40.6464 8.35355L 41.6464 9.35355L 42.3536 8.64645ZM 41 7.5L 38 7.5L 38 8.5L 41 8.5L 41 7.5ZM 37.7226 7.58397L 36.2226 8.58397L 36.7774 9.41603L 38.2774 8.41603L 37.7226 7.58397ZM 36.5 8.5L 27 8.5L 27 9.5L 36.5 9.5L 36.5 8.5ZM 27.4789 8.85633L 25.9789 3.85633L 25.0211 4.14367L 26.5211 9.14367L 27.4789 8.85633ZM 25.9 3.7L 24.4 1.7L 23.6 2.3L 25.1 4.3L 25.9 3.7ZM 24.2773 1.58397L 21.2773 -0.416025L 20.7227 0.416025L 23.7227 2.41603L 24.2773 1.58397ZM 20.8419 -0.474342L 19.3419 0.0256584L 19.6581 0.974342L 21.1581 0.474342L 20.8419 -0.474342ZM 19.0257 0.341886L 18.5257 1.84189L 19.4743 2.15811L 19.9743 0.658114L 19.0257 0.341886ZM 18.938 1.50386L 14.938 2.00386L 15.062 2.99614L 19.062 2.49614L 18.938 1.50386ZM 14.584 2.22265L 13.584 3.72265L 14.416 4.27735L 15.416 2.77735L 14.584 2.22265ZM 13.5149 4.12127L 14.0149 6.12127L 14.9851 5.87873L 14.4851 3.87873L 13.5149 4.12127ZM 14.4019 6.49029L 16.9019 6.99029L 17.0981 6.00971L 14.5981 5.50971L 14.4019 6.49029ZM 17.0981 6.99029L 19.5981 6.49029L 19.4019 5.50971L 16.9019 6.00971L 17.0981 6.99029ZM 19.3419 6.47434L 20.8419 6.97434L 21.1581 6.02566L 19.6581 5.52566L 19.3419 6.47434ZM 20.505 6.57071L 21.005 10.0707L 21.995 9.92929L 21.495 6.42929L 20.505 6.57071ZM 21.0149 10.1213L 21.5149 12.1213L 22.4851 11.8787L 21.9851 9.87873L 21.0149 10.1213ZM 21.9019 12.4903L 24.4019 12.9903L 24.5981 12.0097L 22.0981 11.5097L 21.9019 12.4903ZM 24.6581 12.9743L 26.1581 12.4743L 25.8419 11.5257L 24.3419 12.0257L 24.6581 12.9743ZM 26 12.5L 28 12.5L 28 11.5L 26 11.5L 26 12.5ZM 27.5 12L 27.5 13.5L 28.5 13.5L 28.5 12L 27.5 12ZM 28 14L 29 14L 29 13L 28 13L 28 14ZM 28.5001 13.5111L 29.0001 36.0111L 29.9999 35.9889L 29.4999 13.4889L 28.5001 13.5111ZM 29.0495 35.7831L 22.5495 49.2831L 23.4505 49.7169L 29.9505 36.2169L 29.0495 35.7831ZM 23 49L 21 49L 21 50L 23 50L 23 49ZM 21.5 49.5L 21.5 48.5L 20.5 48.5L 20.5 49.5L 21.5 49.5ZM 21 48L 20 48L 20 49L 21 49L 21 48ZM 19.5528 48.2764L 19.0528 49.2764L 19.9472 49.7236L 20.4472 48.7236L 19.5528 48.2764ZM 19.5312 49.001L 11.5312 48.501L 11.4688 49.499L 19.4688 49.999L 19.5312 49.001ZM 11.6213 48.5149L 9.62127 48.0149L 9.37873 48.9851L 11.3787 49.4851L 11.6213 48.5149ZM 9.99752 48.4502L 9.49752 43.4502L 8.50248 43.5498L 9.00248 48.5498L 9.99752 48.4502ZM 9.44721 43.7236L 10.9472 40.7236L 10.0528 40.2764L 8.55279 43.2764L 9.44721 43.7236ZM 10.5 40L 8.5 40L 8.5 41L 10.5 41L 10.5 40ZM 8.05708 40.268L 2.55708 50.768L 3.44292 51.232L 8.94292 40.732L 8.05708 40.268ZM 2.58397 50.7226L -0.416025 55.2226L 0.416025 55.7774L 3.41603 51.2774L 2.58397 50.7226ZM -0.257248 55.9287L 2.24275 57.4287L 2.75725 56.5713L 0.257248 55.0713L -0.257248 55.9287ZM 2.9 57.3L 4.4 55.3L 3.6 54.7L 2.1 56.7L 2.9 57.3ZM 4.22361 55.4472L 7.22361 53.9472L 6.77639 53.0528L 3.77639 54.5528L 4.22361 55.4472ZM 7.4 53.8L 8.9 51.8L 8.1 51.2L 6.6 53.2L 7.4 53.8ZM 8.5 52L 11 52L 11 51L 8.5 51L 8.5 52ZM 10.9706 51.9991L 19.4706 52.4991L 19.5294 51.5009L 11.0294 51.0009L 10.9706 51.9991ZM 19 52L 19 54.5L 20 54.5L 20 52L 19 52ZM 19.5 55L 20.5 55L 20.5 54L 19.5 54L 19.5 55ZM 20.9642 54.6857L 21.9642 52.1857L 21.0358 51.8143L 20.0358 54.3143L 20.9642 54.6857ZM 21.4723 52.4992L 30.4723 52.9992L 30.5277 52.0008L 21.5277 51.5008L 21.4723 52.4992ZM 30.5 53L 36 53L 36 52L 30.5 52L 30.5 53ZM 35.5 52.5L 35.5 55L 36.5 55L 36.5 52.5L 35.5 52.5ZM 35.584 54.7226L 34.584 56.2226L 35.416 56.7774L 36.416 55.2774L 35.584 54.7226ZM 34.584 56.2226L 33.584 57.7226L 34.416 58.2774L 35.416 56.7774L 34.584 56.2226ZM 33.5257 58.1581L 34.5257 61.1581L 35.4743 60.8419L 34.4743 57.8419L 33.5257 58.1581ZM 34.5023 61.0482L 36.0023 76.5482L 36.9977 76.4518L 35.4977 60.9518L 34.5023 61.0482ZM 36.4019 76.0097L 33.9019 76.5097L 34.0981 77.4903L 36.5981 76.9903L 36.4019 76.0097ZM 33.5713 76.7428L 32.0713 79.2428L 32.9287 79.7572L 34.4287 77.2572L 33.5713 76.7428ZM 32.084 79.7774L 33.084 81.2774L 33.916 80.7226L 32.916 79.2226L 32.084 79.7774ZM 33.0097 81.0981L 33.5097 83.5981L 34.4903 83.4019L 33.9903 80.9019L 33.0097 81.0981ZM 33.5358 83.6857L 34.5358 86.1857L 35.4642 85.8143L 34.4642 83.3143L 33.5358 83.6857ZM 34.6464 86.3536L 36.1464 87.8536L 36.8536 87.1464L 35.3536 85.6464L 34.6464 86.3536ZM 36.2226 87.916L 37.7226 88.916L 38.2774 88.084L 36.7774 87.084L 36.2226 87.916ZM 37.7764 88.9472L 38.7764 89.4472L 39.2236 88.5528L 38.2236 88.0528L 37.7764 88.9472ZM 38.7 89.4L 40.7 90.9L 41.3 90.1L 39.3 88.6L 38.7 89.4ZM 41.2031 90.9569L 45.7031 88.9569L 45.2969 88.0431L 40.7969 90.0431L 41.2031 90.9569ZM 45.9642 88.6857L 46.9642 86.1857L 46.0358 85.8143L 45.0358 88.3143L 45.9642 88.6857ZM 46.2094 86.4069L 49.7094 88.9069L 50.2906 88.0931L 46.7906 85.5931L 46.2094 86.4069ZM 49.5358 88.6857L 50.5358 91.1857L 51.4642 90.8143L 50.4642 88.3143L 49.5358 88.6857ZM 51.2236 91.4472L 53.2236 90.4472L 52.7764 89.5528L 50.7764 90.5528L 51.2236 91.4472ZM 53.5 90L 53.5 88L 52.5 88L 52.5 90L 53.5 90ZM 53.2236 87.5528L 51.2236 86.5528L 50.7764 87.4472L 52.7764 88.4472L 53.2236 87.5528ZM 51.2774 86.584L 46.7774 83.584L 46.2226 84.416L 50.7226 87.416L 51.2774 86.584ZM 46.9932 84.0822L 47.4932 81.0822L 46.5068 80.9178L 46.0068 83.9178L 46.9932 84.0822ZM 47.3536 80.6464L 46.3536 79.6464L 45.6464 80.3536L 46.6464 81.3536L 47.3536 80.6464ZM 45.7 79.6L 43.7 81.1L 44.3 81.9L 46.3 80.4L 45.7 79.6ZM 44.4743 81.3419L 43.9743 79.8419L 43.0257 80.1581L 43.5257 81.6581L 44.4743 81.3419ZM 43.9341 80.2481L 53.9341 62.7481L 53.0659 62.2519L 43.0659 79.7519L 43.9341 80.2481ZM 53.5 63L 55 63L 55 62L 53.5 62L 53.5 63ZM 55.2236 62.9472L 56.2236 62.4472L 55.7764 61.5528L 54.7764 62.0528L 55.2236 62.9472ZM 56.2236 62.4472L 59.2236 60.9472L 58.7764 60.0528L 55.7764 61.5528L 56.2236 62.4472ZM 59.3536 60.8536C 59.8916 60.3155 61.0556 58.8391 61.4851 57.1213L 60.5149 56.8787C 60.1444 58.3609 59.1084 59.6845 58.6464 60.1464L 59.3536 60.8536ZM 61.4851 57.1213C 61.7499 55.9917 61.466 54.9437 61.0722 54.1514C 60.8726 53.7537 60.6393 53.3858 60.4348 53.0713C 60.2301 52.7563 60.0575 52.499 59.9472 52.2764L 59.0528 52.7236C 59.1925 53.001 59.3949 53.3062 59.5964 53.6162C 59.7982 53.9267 60.0024 54.2463 60.1778 54.5986C 60.534 55.3063 60.7501 56.0083 60.5149 56.8787L 61.4851 57.1213ZM 59.9472 52.2764C 59.785 51.952 59.4839 51.7081 59.1867 51.5255C 58.889 51.3439 58.5118 51.1758 58.1456 51.0425C 57.4157 50.7785 56.5962 50.5927 56.0822 50.5068L 55.9178 51.4932C 56.4038 51.574 57.1343 51.7381 57.8044 51.9825C 58.1382 52.1034 58.4235 52.229 58.6633 52.3776C 58.9036 52.5252 59.015 52.648 59.0528 52.7236L 59.9472 52.2764ZM 56.4213 50.7307L 36.9213 20.2307L 36.0787 20.7693L 55.5787 51.2693L 56.4213 50.7307ZM 36.9596 20.303C 35.7963 17.5886 35.845 15.3246 35.9903 14.5981L 35.0097 14.4019C 34.8217 15.342 34.8037 17.8114 36.0404 20.697L 36.9596 20.303ZM 35.7236 14.9472L 37.7236 13.9472L 37.2764 13.0528L 35.2764 14.0528L 35.7236 14.9472ZM 37.3787 13.9851L 39.3787 14.4851L 39.6213 13.5149L 37.6213 13.0149L 37.3787 13.9851ZM 39.9472 14.2236L 40.9472 12.2236L 40.0528 11.7764L 39.0528 13.7764L 39.9472 14.2236ZM 40.5 12.5L 52 12.5L 52 11.5L 40.5 11.5L 40.5 12.5ZM 51.6464 12.3536L 52.1464 12.8536L 52.8536 12.1464L 52.3536 11.6464L 51.6464 12.3536ZM 52.5116 12.9999L 74.0116 12.4999L 73.9884 11.5001L 52.4884 12.0001L 52.5116 12.9999ZM 74.2236 12.4472L 75.2236 11.9472L 74.7764 11.0528L 73.7764 11.5528L 74.2236 12.4472ZM 75.2774 11.916L 76.7774 10.916L 76.2226 10.084L 74.7226 11.084L 75.2774 11.916ZM 76.9472 10.2764L 76.4472 9.27639L 75.5528 9.72361L 76.0528 10.7236L 76.9472 10.2764ZM 75.8787 9.01493L 73.8787 9.51493L 74.1213 10.4851L 76.1213 9.98507L 75.8787 9.01493ZM 24.5415 50.9983L 30.5415 50.4983L 30.4585 49.5017L 24.4585 50.0017L 24.5415 50.9983ZM 31 50L 31 40L 30 40L 30 50L 31 50ZM 30.0659 39.7519L 24.0659 50.2519L 24.9341 50.7481L 30.9341 40.2481L 30.0659 39.7519ZM 32.0004 37.5192L 32.5004 50.5192L 33.4996 50.4808L 32.9996 37.4808L 32.0004 37.5192ZM 33 51L 35.5 51L 35.5 50L 33 50L 33 51ZM 35.9979 50.4547L 35.4979 44.9547L 34.5021 45.0453L 35.0021 50.5453L 35.9979 50.4547ZM 35 44.5L 34 44.5L 34 45.5L 35 45.5L 35 44.5ZM 34.4987 44.9644L 33.9987 37.9644L 33.0013 38.0356L 33.5013 45.0356L 34.4987 44.9644ZM 33.7236 37.5528L 32.7236 37.0528L 32.2764 37.9472L 33.2764 38.4472L 33.7236 37.5528ZM 37.4979 50.4547L 36.9979 44.9547L 36.0021 45.0453L 36.5021 50.5453L 37.4979 50.4547ZM 36.5 45.5L 37.5 45.5L 37.5 44.5L 36.5 44.5L 36.5 45.5ZM 37.9987 44.9644L 37.4987 37.9644L 36.5013 38.0356L 37.0013 45.0356L 37.9987 44.9644ZM 37.4472 38.2236L 37.9472 37.2236L 37.0528 36.7764L 36.5528 37.7764L 37.4472 38.2236ZM 37.6581 36.5257L 36.1581 36.0257L 35.8419 36.9743L 37.3419 37.4743L 37.6581 36.5257ZM 36.3536 36.1464L 34.8536 34.6464L 34.1464 35.3536L 35.6464 36.8536L 36.3536 36.1464ZM 34.9371 34.7572C 33.9465 32.975 33.3365 31.6327 32.9674 30.66C 32.5941 29.6768 32.5 29.1512 32.5 29L 31.5 29C 31.5 29.3488 31.6559 30.0232 32.0326 31.015C 32.4135 32.0173 33.0535 33.425 34.0629 35.2428L 34.9371 34.7572ZM 32.5 29L 32.5 19L 31.5 19L 31.5 29L 32.5 29ZM 31.5735 19.261L 52.0735 52.761L 52.9265 52.239L 32.4265 18.739L 31.5735 19.261ZM 52 52.5L 52 53.5L 53 53.5L 53 52.5L 52 52.5ZM 52.2764 53.0528L 50.2764 54.0528L 50.7236 54.9472L 52.7236 53.9472L 52.2764 53.0528ZM 50.0528 54.2764L 49.5528 55.2764L 50.4472 55.7236L 50.9472 54.7236L 50.0528 54.2764ZM 50.2572 55.0713L 45.2572 52.0713L 44.7428 52.9287L 49.7428 55.9287L 50.2572 55.0713ZM 45.2236 52.0528C 43.8685 51.3759 40.2913 50.0084 37 50L 37 51C 40.1087 50.9916 43.4649 52.2908 44.7764 52.9472L 45.2236 52.0528ZM 40.084 52.7226L 39.084 54.2226L 39.916 54.7774L 40.916 53.2774L 40.084 52.7226ZM 39.5 54L 38 54L 38 55L 39.5 55L 39.5 54ZM 37.5 54.5L 37.5 58L 38.5 58L 38.5 54.5L 37.5 54.5ZM 37.5014 57.9622L 37.3119 60.4622L 38.309 60.5378L 38.4986 58.0378L 37.5014 57.9622ZM 37.3115 60.533L 38.5011 78.533L 39.4989 78.467L 38.3093 60.467L 37.3115 60.533ZM 39.1581 78.9743L 40.6581 78.4743L 40.3419 77.5257L 38.8419 78.0257L 39.1581 78.9743ZM 40.5 78.5L 41.8461 78.5L 41.8461 77.5L 40.5 77.5L 40.5 78.5ZM 42.2764 78.2547L 51.7468 62.2547L 50.8862 61.7453L 41.4158 77.7453L 42.2764 78.2547ZM 51.619 61.6018L 50.3024 60.6018L 49.6976 61.3982L 51.0141 62.3982L 51.619 61.6018ZM 49.5528 60.7764L 49.0528 61.7764L 49.9472 62.2236L 50.4472 61.2236L 49.5528 60.7764ZM 49.8536 61.6464L 48.3536 60.1464L 47.6464 60.8536L 49.1464 62.3536L 49.8536 61.6464ZM 48.4743 60.6581L 48.9743 59.1581L 48.0257 58.8419L 47.5257 60.3419L 48.4743 60.6581ZM 48.6581 58.5257L 47.1581 58.0257L 46.8419 58.9743L 48.3419 59.4743L 48.6581 58.5257ZM 46.8419 58.0257L 45.3419 58.5257L 45.6581 59.4743L 47.1581 58.9743L 46.8419 58.0257ZM 45.6857 58.5358L 43.1857 57.5358L 42.8143 58.4642L 45.3143 59.4642L 45.6857 58.5358ZM 43.4961 58.062L 43.9961 54.062L 43.0039 53.938L 42.5039 57.938L 43.4961 58.062ZM 43.7236 53.5528C 43.349 53.3655 42.2459 52.9211 40.6213 52.5149L 40.3787 53.4851C 41.9541 53.8789 42.9843 54.3012 43.2764 54.4472L 43.7236 53.5528Z"/>
<path id="path6_fill" d="M 50 24C 50 37.2548 38.8071 48 25 48C 11.1929 48 0 37.2548 0 24C 0 10.7452 11.1929 0 25 0C 38.8071 0 50 10.7452 50 24Z"/>
<path id="path7_stroke_2x" d="M 45 24C 45 34.303 36.24 43 25 43L 25 53C 41.3742 53 55 40.2067 55 24L 45 24ZM 25 43C 13.76 43 5 34.303 5 24L -5 24C -5 40.2067 8.62579 53 25 53L 25 43ZM 5 24C 5 13.697 13.76 5 25 5L 25 -5C 8.62579 -5 -5 7.79333 -5 24L 5 24ZM 25 5C 36.24 5 45 13.697 45 24L 55 24C 55 7.79333 41.3742 -5 25 -5L 25 5Z"/>
<path id="path8_fill" d="M 65 0C 29.1042 0 0 28.9578 0 64.6875C 0 74.6938 2.28516 84.1823 6.36675 92.6345C 6.59506 93.1148 65 207 65 207L 122.929 94.0496C 127.448 85.2436 130 75.2623 130 64.6875C 130 28.9578 100.902 0 65 0ZM 65 103.5C 43.4622 103.5 26 86.1152 26 64.6875C 26 43.2598 43.4622 25.875 65 25.875C 86.5312 25.875 104 43.2598 104 64.6875C 104 86.1152 86.5312 103.5 65 103.5Z"/>
</defs>
</svg>
